# xmcd
#
# Track frame offsets:
#	150
#	15167
#	31789
#	46579
#	66062
#	81956
#	100526
#	116489
#	130026
#	144425
#	156472
#	171148
#	188035
#	202187
#
# Disc length: 2779 seconds
# Revision: 1
# Processed by: cddbd v1.5.2PL0 Copyright (c) Steve Scherf et al.
# Submitted via: dBpowerAMP V12.0
#
DISCID=aa0ad90e
DTITLE=Don Rigsby - Midnight Call
DYEAR=2003
DGENRE=Country
TTITLE0=Those Gambler's Blues
TTITLE1=The Midnight Call
TTITLE2=Carved Our Names in Stone
TTITLE3=Blood on My Hands
TTITLE4=Dying to Hold Her Again
TTITLE5=Muddy Water
TTITLE6=What Lays Down the Road
TTITLE7=Green Briar River
TTITLE8=Green Ivy Vine
TTITLE9=Look Out Below
TTITLE10=Come in out of the Rain
TTITLE11=Little White Cross Out on Highway 13
TTITLE12=I've Already Turned That Page
TTITLE13=[Untitled Hidden Track]
EXTD=
EXTT0=
EXTT1=
EXTT2=
EXTT3=
EXTT4=
EXTT5=
EXTT6=
EXTT7=
EXTT8=
EXTT9=
EXTT10=
EXTT11=
EXTT12=
EXTT13=
PLAYORDER=
